<?xml version="1.0" encoding="UTF-8"?>
<svg xmlns="http://www.w3.org/2000/svg" id="Camada_1" width="1022.89" height="288.08" viewBox="0 0 1022.89 288.08">
  <path d="M192.96,53.63c-5.88,6.84-10.95,12.52-15.46,18.59-15.75,21.28-24.01,44.6-16.3,71.26,10.97,38.01,59.48,54.06,95.37,29.55,18.1-12.34,33.02-29.51,48.87-45.02,9.59-9.37,17.96-19.98,27.37-29.55,10.29-10.48,24.22-16.75,37.95-10.74,13.39,5.87,17.09,20.25,17.21,34.37.06,7.49-.57,26.37-.61,28.05-3.36,16.98,26.52-18.85,36.4-27.22,20.71-17.53,58.58-25.67,58.23,39.97,1.12,21.81,5.13,21.14,9,15.5,1.84-2.69,19.19-37.06,35.63-63.37,20.68-33.14,37.44-29.15,42.19-27.8,9.73,2.75,16.93,11.05,18.58,24.48,1.36,11.06,1.93,22.23,2.42,33.37,1.32,28.42,15.54,39.57,43.06,33.01,8.49-2.02,16.86-4.81,25.03-7.97,43.57-16.83,87.26-16.48,130.91-.83,29.77,10.66,60.23,17.62,91.82,16.24,16.64-.73,33.22-4.12,49.66-7.18,4.72-.89,5.05,4.71,1.3,5.78-7.97,2.25-15.93,4.49-24.06,5.8-41.68,6.68-82.11.29-121.48-14.01-43.39-15.78-86.18-17.53-128.84,3.01-9.47,4.55-20.06,7.5-30.45,9.14-28.86,4.55-45.81-10.04-47.81-39.71-.59-8.82-.97-17.7-2.56-26.34-3.65-19.82-21.73-26.46-36.83-13.13-6.15,5.44-11,12.82-15.14,20.05-11.21,19.62-21.33,39.89-32.85,59.35-3.12,5.29-18.62,18.34-20.73-5.73-1.47-11.44-1.21-23.06-2.16-34.55-1.83-22.61-19.41-32.48-37.71-19.46-12.2,8.68-21.96,21.08-32.16,32.39-7.68,8.54-14.21,18.12-21.55,26.96-2.51,3.02-13.91,13.32-10.51-6.43,1.3-8.21,2.58-16.42,3.46-24.68,1.21-11.78,2.83-23.85,1.53-35.5-.79-6.98-5.23-15.82-10.84-19.46-8.13-5.28-17.81-1.94-24.87,5.44-17.27,18-34.36,36.17-51.59,54.21-17.78,18.63-39.35,29.79-64.76,33.94-41.45,6.8-70.31-16.46-72.36-58.9-.35-7.1-.08-14.22-.05-23.95,0-.59,0-1.66-1.44.12-17.19,21.6-41.31,55.63-55.56,74.62-1.61,2.13-5.89,1.91-2.77-3.64,15.99-28.46,81.51-116.52,100.78-132.12,2.24-1.82,5.87.73,4.7,2.1" fill="#c1272d" stroke-width="0"></path>
  <path d="M200.27,36.49c5.17-10.6,18.43-28.82-10.71-32.2,9.94-1.62,19.23-4.25,28.54-4.29,13.19.79,8.16,11.94,5.72,16.51-6.67,12.38-21.92,25.37-24.24,23.46-.39-.32-.45-1.17.7-3.48" fill="#c1272d" stroke-width="0"></path>
  <path d="M0,285.29c3.2-.22,5.28-.71,6.22-1.44.95-.73,1.42-2.61,1.42-5.65v-35.24c0-2.91-.47-4.79-1.42-5.64-.94-.83-3.03-1.32-6.22-1.48v-1.47h23.28v1.47c-3.2.16-5.26.65-6.2,1.48-.95.85-1.44,2.73-1.44,5.64v35.24c0,3.04.48,4.92,1.44,5.65.94.73,3,1.22,6.2,1.44v1.49H0v-1.49Z" fill="#c1272d" stroke-width="0"></path>
  <path d="M63.05,234.7c2.93.87,4.63,1.28,5.07,1.28,1.13,0,1.93-.22,2.41-.65.47-.44.87-1.09,1.21-1.9h1.73l.61,16.67h-1.8c-1.61-3.84-3.28-6.71-4.99-8.58-3.11-3.31-7.14-4.96-12.1-4.96s-9.49,1.94-13.32,5.79c-3.83,3.85-5.76,10.2-5.76,19.04,0,7.3,1.91,13,5.74,17.09,3.82,4.09,8.53,6.15,14.15,6.15.94,0,2.05-.08,3.34-.27,1.28-.18,2.5-.45,3.65-.85,1.86-.61,3.02-1.14,3.5-1.58.45-.46.69-1.13.69-1.99v-12.62c0-3.07-.43-4.97-1.29-5.71-.85-.75-2.73-1.21-5.62-1.4v-1.47h20.05v1.47c-1.95.13-3.24.45-3.88.96-1.08.83-1.62,2.54-1.62,5.11v15.58c0,.93-2.25,2.18-6.77,3.72-4.53,1.55-8.88,2.32-13.04,2.32-7.68,0-14.16-2.26-19.45-6.77-5.81-4.98-8.72-11.65-8.72-20.03,0-7.37,2.33-13.68,6.96-18.94,5.1-5.8,11.87-8.7,20.29-8.7,3.04,0,6.03.41,8.99,1.27" fill="#c1272d" stroke-width="0"></path>
  <path d="M109.53,257.84c4.17-1.72,6.27-4.96,6.27-9.73s-1.88-7.71-5.61-9.39c-2.01-.89-4.64-1.35-7.95-1.35-2.23,0-3.59.18-4.09.49-.5.32-.75,1.07-.75,2.25v19.5c5.65-.22,9.7-.81,12.13-1.78M82.64,285.29c3.02-.28,4.9-.87,5.65-1.76.74-.91,1.11-2.99,1.11-6.27v-34.31c0-2.79-.41-4.61-1.25-5.48-.83-.85-2.67-1.41-5.51-1.65v-1.47h21.78c4.54,0,8.32.58,11.34,1.75,5.74,2.19,8.6,6.23,8.6,12.08,0,3.94-1.28,6.96-3.82,9.08-2.54,2.12-6.01,3.5-10.39,4.17l16.21,20.1c.99,1.23,2,2.11,2.99,2.69,1,.55,2.28.93,3.85,1.07v1.49h-12.67l-19.69-24.43-3.45.2v15.62c0,2.93.45,4.79,1.32,5.56.89.79,2.82,1.3,5.79,1.56v1.49h-21.86v-1.49Z" fill="#c1272d" stroke-width="0"></path>
  <path d="M135.11,285.29c2.9-.3,4.78-.83,5.63-1.56.86-.74,1.29-2.57,1.29-5.54v-35.24c0-2.81-.42-4.65-1.26-5.52-.84-.85-2.74-1.39-5.66-1.6v-1.47h41.81l.26,11.34h-1.99c-.67-3.48-1.67-5.76-2.99-6.79-1.34-1.03-4.3-1.54-8.92-1.54h-10.72c-1.15,0-1.86.2-2.13.57-.27.36-.42,1.07-.42,2.09v17.69h12.15c3.36,0,5.49-.5,6.42-1.5.91-1.01,1.67-3.03,2.23-6.07h1.85v18.3h-1.85c-.59-3.07-1.34-5.11-2.27-6.1-.92-.99-3.04-1.48-6.37-1.48h-12.15v19.6c0,1.57.5,2.51,1.49,2.79.99.28,3.95.42,8.88.42,5.33,0,9.26-.57,11.8-1.76,2.54-1.16,4.82-4.01,6.84-8.52h2.19l-3.58,13.39h-42.53v-1.49Z" fill="#c1272d" stroke-width="0"></path>
  <path d="M184.27,279.16c.79-.6,1.62-.91,2.51-.91,1.77,0,3.07,1.11,3.92,3.31.84,2.18,1.74,3.28,2.68,3.28,1.03,0,1.74-.46,2.13-1.35.4-.91.61-2.49.61-4.73v-35.82c0-2.93-.48-4.83-1.43-5.66-.95-.81-2.91-1.31-5.88-1.46v-1.47h22.59v1.47c-3.05.18-5.03.73-5.94,1.65-.91.91-1.36,2.74-1.36,5.48v29.09c0,5.3-1.26,9.23-3.8,11.79-2.55,2.59-5.68,3.88-9.41,3.88-2.47,0-4.38-.58-5.75-1.72-1.37-1.13-2.05-2.39-2.05-3.78s.38-2.43,1.17-3.04" fill="#c1272d" stroke-width="0"></path>
  <path d="M247.95,266.42l-9.01-21.81-9.05,21.81h18.06ZM214.07,286.78v-1.49c2.03-.22,3.54-.99,4.55-2.29,1.01-1.3,2.74-4.87,5.2-10.7l16.4-38.86h1.58l19.6,44.9c1.32,2.98,2.36,4.82,3.12,5.51.78.71,2.1,1.19,3.95,1.44v1.49h-20.02v-1.49c2.32-.2,3.79-.45,4.46-.75.64-.3.98-1.01.98-2.17,0-.37-.11-1.05-.37-2.04-.25-.97-.61-1.99-1.08-3.06l-3.14-7.64h-20.73c-2.06,5.2-3.27,8.35-3.67,9.5-.39,1.14-.59,2.06-.59,2.73,0,1.32.53,2.25,1.61,2.77.67.3,1.92.54,3.77.67v1.49h-15.6Z" fill="#c1272d" stroke-width="0"></path>
  <path d="M322.98,234.7c3,.87,4.68,1.28,5.05,1.28.72,0,1.43-.22,2.1-.61.67-.41,1.12-1.07,1.37-1.94h1.67l.73,17.78h-1.81c-1.06-3.52-2.42-6.37-4.1-8.52-3.24-4.09-7.59-6.13-13.03-6.13s-10.02,2.19-13.51,6.58c-3.49,4.39-5.24,10.4-5.24,18.1,0,7.06,1.85,12.69,5.52,16.92,3.67,4.22,8.33,6.31,13.97,6.31,4.07,0,7.82-.97,11.26-2.93,1.96-1.1,4.13-2.78,6.48-5.04l1.46,1.48c-1.73,2.22-3.89,4.15-6.48,5.83-4.4,2.83-9.17,4.25-14.32,4.25-8.45,0-15.17-2.71-20.14-8.14-4.58-5.03-6.88-11.32-6.88-18.85s2.42-14.18,7.27-19.4c5.09-5.5,11.73-8.25,19.9-8.25,2.83,0,5.75.41,8.74,1.27" fill="#c1272d" stroke-width="0"></path>
  <path d="M365.35,257.84c4.19-1.72,6.27-4.96,6.27-9.73s-1.87-7.71-5.6-9.39c-2.01-.89-4.66-1.35-7.96-1.35-2.24,0-3.6.18-4.11.49-.49.32-.75,1.07-.75,2.25v19.5c5.68-.22,9.71-.81,12.14-1.78M338.46,285.29c3.02-.28,4.91-.87,5.66-1.76.75-.91,1.12-2.99,1.12-6.27v-34.31c0-2.79-.43-4.61-1.26-5.48-.82-.85-2.67-1.41-5.52-1.65v-1.47h21.78c4.53,0,8.31.58,11.34,1.75,5.74,2.19,8.6,6.23,8.6,12.08,0,3.94-1.28,6.96-3.81,9.08-2.55,2.12-6.03,3.5-10.39,4.17l16.2,20.1c1,1.23,1.99,2.11,2.99,2.69,1,.55,2.3.93,3.85,1.07v1.49h-12.67l-19.69-24.43-3.46.2v15.62c0,2.93.45,4.79,1.34,5.56.88.79,2.81,1.3,5.77,1.56v1.49h-21.86v-1.49Z" fill="#c1272d" stroke-width="0"></path>
  <path d="M391.32,285.29c3.2-.22,5.28-.71,6.22-1.44.95-.73,1.42-2.61,1.42-5.65v-35.24c0-2.91-.47-4.79-1.42-5.64-.94-.83-3.02-1.32-6.22-1.48v-1.47h23.28v1.47c-3.2.16-5.26.65-6.22,1.48-.94.85-1.42,2.73-1.42,5.64v35.24c0,3.04.47,4.92,1.42,5.65.96.73,3.02,1.22,6.22,1.44v1.49h-23.28v-1.49Z" fill="#c1272d" stroke-width="0"></path>
  <path d="M421.33,270.84c1.32,3.56,2.89,6.4,4.68,8.5,3.13,3.7,7,5.54,11.61,5.54,2.52,0,4.68-.79,6.52-2.39,1.83-1.6,2.73-3.84,2.73-6.7,0-2.57-.92-4.81-2.77-6.73-1.2-1.2-3.73-3.02-7.58-5.46l-6.72-4.21c-2-1.29-3.61-2.59-4.83-3.9-2.22-2.51-3.34-5.26-3.34-8.29,0-4,1.34-7.32,3.97-9.97,2.63-2.67,6.13-3.99,10.5-3.99,1.79,0,3.95.45,6.46,1.35,2.51.89,3.97,1.32,4.32,1.32.98,0,1.65-.24,2.03-.69.35-.47.65-1.13.86-1.98h1.61l1.73,16.87h-1.89c-1.27-5.08-3.34-8.62-6.17-10.64-2.83-2.02-5.64-3.03-8.39-3.03-2.16,0-4.03.65-5.62,1.92-1.61,1.28-2.42,3.04-2.42,5.32,0,2.04.63,3.78,1.85,5.22,1.22,1.47,3.12,3.01,5.72,4.61l6.91,4.29c4.32,2.69,7.37,5.14,9.14,7.4,1.75,2.25,2.63,4.95,2.63,8.03,0,4.15-1.57,7.64-4.65,10.4-3.13,2.79-7.11,4.2-11.94,4.2-2.44,0-4.97-.48-7.62-1.4-2.66-.93-4.17-1.39-4.56-1.39-.93,0-1.53.28-1.87.85-.31.55-.53,1.16-.63,1.82h-1.73l-2.34-16.87h1.81Z" fill="#c1272d" stroke-width="0"></path>
  <path d="M461.55,234.36h44.49l.41,13.45h-1.89c-.9-4.22-2.08-6.98-3.5-8.25-1.43-1.26-4.42-1.92-8.98-1.92h-4.38v40.55c0,3.04.47,4.92,1.42,5.65.96.73,3.02,1.22,6.22,1.44v1.49h-22.95v-1.49c3.34-.26,5.42-.79,6.25-1.64.81-.85,1.22-2.99,1.22-6.39v-39.62h-4.42c-4.34,0-7.31.63-8.9,1.9-1.57,1.27-2.75,4.01-3.56,8.27h-1.91l.45-13.45Z" fill="#c1272d" stroke-width="0"></path>
  <path d="M543.11,266.42l-9.01-21.81-9.06,21.81h18.07ZM538.61,221.98c.9.43,1.63.75,2.16.91.55.18,1.08.25,1.59.25,1.32,0,2.39-.49,3.24-1.48.55-.61,1-1.43,1.32-2.47h4.44c-.14,1.4-.73,2.84-1.75,4.33-1.87,2.69-4.56,4.03-8.1,4.03-1.26,0-2.44-.16-3.53-.46-1.1-.31-2.22-.77-3.36-1.36l-1.81-.93c-.43-.22-.93-.4-1.49-.55-.55-.18-1.04-.26-1.51-.26-1.31,0-2.34.43-3.1,1.3-.41.5-.81,1.25-1.2,2.26h-2.38c.66-2.77,1.77-4.78,3.3-6.05,1.53-1.29,3.22-1.92,5.03-1.92.85,0,1.69.11,2.51.35.84.25,1.77.63,2.75,1.11l1.89.93ZM509.23,286.78v-1.49c2.02-.22,3.56-.99,4.55-2.29,1.02-1.3,2.75-4.87,5.21-10.7l16.39-38.86h1.57l19.6,44.9c1.3,2.98,2.34,4.82,3.13,5.51.78.71,2.1,1.19,3.95,1.44v1.49h-20.02v-1.49c2.3-.2,3.79-.45,4.46-.75.64-.3.98-1.01.98-2.17,0-.37-.12-1.05-.37-2.04-.25-.97-.61-1.99-1.08-3.06l-3.14-7.64h-20.75c-2.04,5.2-3.26,8.35-3.65,9.5-.39,1.14-.59,2.06-.59,2.73,0,1.32.53,2.25,1.61,2.77.65.3,1.9.54,3.75.67v1.49h-15.6Z" fill="#c1272d" stroke-width="0"></path>
  <path d="M585.45,285.29c3.26-.33,5.35-1.07,6.27-2.22.92-1.14,1.38-3.81,1.38-7.97v-32.15c0-2.87-.45-4.73-1.34-5.6-.9-.85-2.94-1.37-6.1-1.53v-1.47h15.5l18.07,39.47,17.64-39.47h15.62v1.47c-2.91.21-4.79.75-5.64,1.6-.85.87-1.28,2.71-1.28,5.52v35.2c0,2.89.43,4.73,1.28,5.54.85.81,2.73,1.34,5.64,1.6v1.49h-22v-1.49c3.16-.26,5.15-.83,5.93-1.72.78-.87,1.18-3.01,1.18-6.35v-35.56l-20.16,45.11h-1.08l-19.8-43.26v31.58c0,4.33.63,7.14,1.89,8.45.82.87,2.65,1.44,5.5,1.74v1.49h-18.48v-1.49Z" fill="#c1272d" stroke-width="0"></path>
  <path d="M689.56,266.42l-9.01-21.81-9.06,21.81h18.07ZM655.68,286.78v-1.49c2.02-.22,3.54-.99,4.56-2.29,1.01-1.3,2.75-4.87,5.21-10.7l16.38-38.86h1.58l19.6,44.9c1.3,2.98,2.34,4.82,3.13,5.51.78.71,2.11,1.19,3.93,1.44v1.49h-20v-1.49c2.3-.2,3.79-.45,4.44-.75.67-.3,1-1.01,1-2.17,0-.37-.13-1.05-.39-2.04-.24-.97-.61-1.99-1.06-3.06l-3.14-7.64h-20.75c-2.04,5.2-3.26,8.35-3.65,9.5-.39,1.14-.61,2.06-.61,2.73,0,1.32.55,2.25,1.61,2.77.66.3,1.92.54,3.77.67v1.49h-15.6Z" fill="#c1272d" stroke-width="0"></path>
  <path d="M739.11,257.84c4.18-1.72,6.26-4.96,6.26-9.73s-1.86-7.71-5.6-9.39c-2-.89-4.65-1.35-7.95-1.35-2.24,0-3.6.18-4.08.49-.51.32-.77,1.07-.77,2.25v19.5c5.68-.22,9.7-.81,12.15-1.78M712.21,285.29c3.02-.28,4.91-.87,5.66-1.76.75-.91,1.1-2.99,1.1-6.27v-34.31c0-2.79-.41-4.61-1.24-5.48-.83-.85-2.67-1.41-5.52-1.65v-1.47h21.78c4.54,0,8.31.58,11.34,1.75,5.74,2.19,8.6,6.23,8.6,12.08,0,3.94-1.25,6.96-3.83,9.08-2.53,2.12-6.01,3.5-10.37,4.17l16.2,20.1c1.01,1.23,1.98,2.11,2.99,2.69,1,.55,2.3.93,3.85,1.07v1.49h-12.67l-19.68-24.43-3.46.2v15.62c0,2.93.46,4.79,1.34,5.56.88.79,2.81,1.3,5.78,1.56v1.49h-21.86v-1.49Z" fill="#c1272d" stroke-width="0"></path>
  <path d="M798.87,266.42l-9.01-21.81-9.06,21.81h18.07ZM764.98,286.78v-1.49c2.02-.22,3.54-.99,4.56-2.29,1-1.3,2.73-4.87,5.19-10.7l16.4-38.86h1.58l19.59,44.9c1.32,2.98,2.36,4.82,3.15,5.51.76.71,2.08,1.19,3.93,1.44v1.49h-20.02v-1.49c2.3-.2,3.79-.45,4.46-.75.67-.3,1-1.01,1-2.17,0-.37-.14-1.05-.39-2.04-.26-.97-.61-1.99-1.06-3.06l-3.16-7.64h-20.73c-2.04,5.2-3.28,8.35-3.67,9.5-.39,1.14-.59,2.06-.59,2.73,0,1.32.53,2.25,1.61,2.77.67.3,1.92.54,3.75.67v1.49h-15.58Z" fill="#c1272d" stroke-width="0"></path>
  <path d="M821.52,285.29c3.26-.33,5.34-1.07,6.27-2.22.92-1.14,1.37-3.81,1.37-7.97v-34.91l-1.08-1.29c-1.14-1.35-2.12-2.19-2.95-2.53-.79-.32-2-.49-3.62-.56v-1.47h13.44l30.35,37.9v-26.33c0-4.33-.63-7.14-1.91-8.44-.86-.85-2.73-1.41-5.62-1.66v-1.47h18.49v1.47c-3,.32-5.01,1.05-5.99,2.21-1,1.17-1.51,3.8-1.51,7.97v41.7h-1.34l-34.81-43.44v30.83c0,4.33.63,7.14,1.88,8.45.83.87,2.66,1.44,5.5,1.74v1.49h-18.49v-1.49Z" fill="#c1272d" stroke-width="0"></path>
  <path d="M912.49,266.42l-9.02-21.81-9.06,21.81h18.08ZM878.6,286.78v-1.49c2.02-.22,3.54-.99,4.56-2.29,1.02-1.3,2.75-4.87,5.21-10.7l16.38-38.86h1.57l19.61,44.9c1.29,2.98,2.35,4.82,3.12,5.51.78.71,2.1,1.19,3.95,1.44v1.49h-20.02v-1.49c2.3-.2,3.79-.45,4.46-.75.66-.3,1-1.01,1-2.17,0-.37-.13-1.05-.39-2.04-.25-.97-.62-1.99-1.08-3.06l-3.14-7.64h-20.75c-2.04,5.2-3.26,8.35-3.65,9.5-.4,1.14-.61,2.06-.61,2.73,0,1.32.55,2.25,1.63,2.77.67.3,1.91.54,3.75.67v1.49h-15.6Z" fill="#c1272d" stroke-width="0"></path>
  <path d="M927.09,234.36h44.47l.43,13.45h-1.89c-.93-4.22-2.08-6.98-3.52-8.25-1.42-1.26-4.4-1.92-8.98-1.92h-4.36v40.55c0,3.04.47,4.92,1.41,5.65.94.73,3.02,1.22,6.22,1.44v1.49h-22.94v-1.49c3.34-.26,5.42-.79,6.23-1.64.82-.85,1.24-2.99,1.24-6.39v-39.62h-4.42c-4.36,0-7.33.63-8.9,1.9-1.57,1.27-2.75,4.01-3.55,8.27h-1.91l.45-13.45Z" fill="#c1272d" stroke-width="0"></path>
  <path d="M1002.38,266.42l-9.02-21.81-9.06,21.81h18.07ZM968.5,286.78v-1.49c2.04-.22,3.55-.99,4.55-2.29,1.03-1.3,2.75-4.87,5.21-10.7l16.39-38.86h1.57l19.6,44.9c1.32,2.98,2.36,4.82,3.12,5.51.78.71,2.1,1.19,3.95,1.44v1.49h-20.01v-1.49c2.29-.2,3.79-.45,4.46-.75.66-.3,1-1.01,1-2.17,0-.37-.14-1.05-.4-2.04-.25-.97-.61-1.99-1.07-3.06l-3.14-7.64h-20.72c-2.07,5.2-3.28,8.35-3.67,9.5-.4,1.14-.59,2.06-.59,2.73,0,1.32.54,2.25,1.61,2.77.67.3,1.91.54,3.75.67v1.49h-15.6Z" fill="#c1272d" stroke-width="0"></path>
</svg>
